<?xml version="1.0" standalone="no"?>
<!DOCTYPE svg PUBLIC "-//W3C//DTD SVG 20010904//EN"
 "http://www.w3.org/TR/2001/REC-SVG-20010904/DTD/svg10.dtd">
<svg version="1.0" xmlns="http://www.w3.org/2000/svg"
 width="800.000000pt" height="800.000000pt" viewBox="0 0 800.000000 800.000000"
 preserveAspectRatio="xMidYMid meet">
<metadata>
Created by potrace 1.14, written by Peter Selinger 2001-2017
</metadata>
<g transform="translate(0.000000,800.000000) scale(0.100000,-0.100000)"
fill="#000000" stroke="none">
<path d="M0 4000 l0 -4000 1947 2 1947 3 18 65 c272 959 596 1799 1033 2682
62 126 111 228 110 228 -2 0 -477 -268 -1056 -595 -579 -327 -1055 -595 -1058
-595 -11 1 -260 455 -253 462 4 4 644 366 1422 806 2180 1230 2401 1354 2405
1351 2 -2 -114 -191 -256 -419 -387 -619 -468 -757 -687 -1175 -350 -670 -682
-1444 -919 -2140 -69 -204 -203 -641 -203 -662 0 -11 327 -13 1773 -11 l1772
3 3 3998 2 3997 -1630 0 -1629 0 -173 -122 c-643 -454 -1241 -909 -1608 -1223
-567 -486 -908 -874 -959 -1095 -10 -43 -9 -46 19 -72 16 -15 63 -38 108 -52
455 -143 1555 -37 3206 310 170 36 310 63 312 61 6 -5 116 -508 112 -512 -5
-5 -506 -110 -778 -164 -1775 -348 -2811 -380 -3239 -99 -127 83 -218 200
-257 333 -28 93 -24 246 10 358 72 241 248 495 570 825 347 355 772 713 1434
1210 l324 242 -1911 0 -1911 0 0 -4000z m5008 373 c48 -147 76 -245 70 -249
-5 -3 -480 -163 -1054 -354 -702 -234 -1047 -345 -1050 -337 -18 49 -163 491
-161 492 13 11 2104 701 2108 696 4 -3 43 -115 87 -248z"/>
</g>
</svg>
